<svg width="1920" height="1080" viewBox="0 0 1920 1080" xmlns="http://www.w3.org/2000/svg"><rect width="1920" height="1080" fill="#818cf8"/><path d="M1920,1080C1601.3333333333333,1130.6666666666667,292,1119.8333333333333,0,1080C-292,1040.1666666666667,111,862,168,841C225,820,283,946.5,342,954C401,961.5,463.3333333333333,895.8333333333334,522,886C580.6666666666666,876.1666666666666,636.1666666666666,894.3333333333334,694,895C751.8333333333334,895.6666666666666,811.5,909.3333333333334,869,890C926.5,870.6666666666666,981.3333333333334,765.6666666666666,1039,779C1096.6666666666667,792.3333333333334,1156.8333333333333,942.3333333333334,1215,970C1273.1666666666667,997.6666666666666,1329.1666666666667,968.5,1388,945C1446.8333333333333,921.5,1509.6666666666667,848.6666666666666,1568,829C1626.3333333333333,809.3333333333334,1680.6666666666667,835.8333333333334,1738,827C1795.3333333333333,818.1666666666666,1881.6666666666667,733.8333333333334,1912,776C1942.3333333333333,818.1666666666666,2238.6666666666665,1029.3333333333333,1920,1080C1601.3333333333333,1130.6666666666667,292,1119.8333333333333,0,1080" fill="#ffffff"/></svg>