<?xml version='1.0' encoding='utf-8'?>
<svg xmlns="http://www.w3.org/2000/svg" enable-background="new 0 0 4000 4000" version="1.1" viewBox="0 0 4e3 4e3"> <style type="text/css">.st0{fill:#FFFFFF;} .st1{fill:#F1E3F4;} .st2{fill:#4B1689;} .st3{fill:#27313A;} .st4{fill:#A948B8;} .st5{fill:#36464E;} .st6{fill:#E0BDE7;} .st7{fill:#CE92D6;} .st8{fill:#778F9B;} .st9{fill:#90A2AC;} .st10{fill:#691D98;} .st11{fill:#9D29AD;} .st12{fill:#B968C7;} .st13{fill:#8E25A8;} .st14{fill:#7921A0;} .st15{fill:#AEBDC4;} .st16{fill:#CED6D9;} .st17{fill:#445861;} .st18{fill:#ECEDEF;} .st19{fill:#5E7B8B;}</style> <rect class="st0" width="4e3" height="4e3"/> <path class="st1" d="m1201.1 2891.3s-153-231.8-88.6-302.5 244.3-36.1 323.5-99.7 383.4-527.6 698.4-442.6 288-484.4 436.4-479.6 329.6 69.5 273.2 327.1-202.7 483.1-113.4 607.9c89.2 124.8 169.8 335.5 89.2 389.3h-1618.7z"/> <path class="st1" d="m1298.8 2366.7c37.1 10.7 77 3.7 108.5-18.6 35-24.8 90.3-67.7 134.4-119.1 48.7-56.8 4.4-144.4 47.2-180.2 178.2-149-46.2-257.2-171.7-134-125.4 123.2-162.2 224.3-197.4 286.5-44.4 78.4 7.4 144.8 79 165.4z"/> <path class="st1" d="m1778.5 1507c35.3 47.3-19.2 67.8-86.1 117.8s-120.9 110.5-156.2 63.2-9.7-126.2 57.2-176.1c66.8-50.1 149.7-52.2 185.1-4.9z"/> <path class="st1" d="m1939.6 1861.5s262.1-12.8 386-225.7 16.5-236.1-111.9-187.9c-128.5 48.2-242.7 210.3-413.1 211-170.4 0.5-137.3 198.3 139 202.6z"/> <path class="st2" d="m2782 2658.8c-2.1 0-4.1-1-5.3-2.9-1.9-2.9-1-6.8 1.9-8.6l18-11.5c9.1-5.8 20.8-5.6 29.7 0.4l5.3 3.6c4.8 3.2 11.1 3.3 16 0.2l6.5-4.1c9.1-5.8 20.8-5.6 29.7 0.4l16.7 11.2c2.9 1.9 3.6 5.8 1.7 8.7s-5.8 3.6-8.7 1.7l-16.7-11.2c-4.8-3.2-11.1-3.3-16-0.2l-6.5 4.1c-9.1 5.8-20.8 5.6-29.7-0.4l-5.3-3.6c-4.8-3.2-11.1-3.3-16-0.2l-18 11.5c-1 0.6-2.1 0.9-3.3 0.9z"/> <path class="st2" d="m1347.2 2327.6c-2.1 0-4.1-1-5.3-2.9-1.9-2.9-1-6.8 1.9-8.6l18-11.5c9.1-5.8 20.8-5.6 29.7 0.4l5.3 3.6c4.8 3.2 11.1 3.3 16 0.2l6.5-4.1c9.1-5.8 20.8-5.6 29.7 0.4l16.7 11.2c2.9 1.9 3.6 5.8 1.7 8.7s-5.8 3.6-8.7 1.7l-16.7-11.2c-4.8-3.2-11.1-3.3-16-0.2l-6.5 4.1c-9.1 5.8-20.8 5.6-29.7-0.4l-5.3-3.6c-4.8-3.2-11.1-3.3-16-0.2l-18 11.5c-1 0.6-2.1 0.9-3.3 0.9z"/> <path class="st2" d="m1580.5 1416.8c-2.1 0-4.1-1-5.3-2.9-1.9-2.9-1-6.8 1.9-8.6l18-11.5c9.1-5.8 20.8-5.6 29.7 0.4l5.3 3.6c4.8 3.2 11.1 3.3 16 0.2l6.5-4.1c9.1-5.8 20.8-5.6 29.7 0.4l16.7 11.2c2.9 1.9 3.6 5.8 1.7 8.7s-5.8 3.6-8.7 1.7l-16.7-11.2c-4.8-3.2-11.1-3.3-16-0.2l-6.5 4.1c-9.1 5.8-20.8 5.6-29.7-0.4l-5.3-3.6c-4.8-3.2-11.1-3.3-16-0.2l-18 11.5c-1 0.6-2.2 0.9-3.3 0.9z"/> <path class="st2" d="m2673.2 1609.5c-2.1 0-4.1-1-5.3-2.9-1.9-2.9-1-6.8 1.9-8.6l18-11.5c9.1-5.8 20.8-5.6 29.7 0.4l5.3 3.6c4.8 3.2 11.1 3.3 16 0.2l6.5-4.1c9.1-5.8 20.8-5.6 29.7 0.4l16.7 11.2c2.9 1.9 3.6 5.8 1.7 8.7s-5.8 3.6-8.7 1.7l-16.7-11.2c-4.8-3.2-11.1-3.3-16-0.2l-6.5 4.1c-9.1 5.8-20.8 5.6-29.7-0.4l-5.3-3.6c-4.8-3.2-11.1-3.3-16-0.2l-18 11.5c-1 0.6-2.2 0.9-3.3 0.9z"/> <circle class="st2" cx="1310.6" cy="2533.5" r="17.1"/> <circle class="st2" cx="2886.2" cy="2155.2" r="17.1"/> <circle class="st3" cx="2730.7" cy="1419.9" r="11"/> <circle class="st4" cx="1957.6" cy="1205.1" r="11"/> <circle class="st3" cx="1329.5" cy="2048.9" r="11"/> <circle class="st4" cx="2719.7" cy="1779.5" r="11"/> <circle class="st2" cx="1243.2" cy="1567" r="17.1"/> <path class="st5" d="m2385.4 1741.1v1150.2h-700.7v-1150.2c0-23.1 18.7-41.8 41.8-41.8h617.2c23 0 41.7 18.7 41.7 41.8z"/> <path class="st6" d="m2334.7 1747.8v1100h-599.3v-1100h177.2v28.2c0 15.6 12.6 28.2 28.2 28.2h188.5c7.8 0 14.8-3.2 19.9-8.3s8.3-12.1 8.3-19.9v-28.2h177.2z"/> <path class="st7" d="m2334.7 1767.8v-20h-177.2v20h110.6c25.7 0 46.6 20.9 46.6 46.6v1033.5h20v-1080.1z"/> <rect class="st7" x="1735.5" y="1747.8" width="177.2" height="20"/> <polygon class="st7" points="2165 2262.1 2138.8 2354 2125.8 2354 2152.3 2260.7"/> <polygon class="st7" points="2129.1 2258.3 2101.9 2354 2088.9 2354 2116.4 2256.9"/> <polygon class="st7" points="2093.2 2254.4 2064.9 2354 2051.9 2354 2080.6 2253.1"/> <polygon class="st7" points="2057.4 2250.6 2028 2354 2014.9 2354 2044.7 2249.2"/> <polygon class="st7" points="2021.5 2246.7 1991 2354 1983.6 2354 1980.5 2345.3 2008.9 2245.4"/> <polygon class="st7" points="1985.6 2242.9 1964.9 2316 1957.6 2295.6 1973 2241.5"/> <polygon class="st8" points="2159.7 2262.1 2133.6 2354 2120.6 2354 2147.1 2260.7"/> <polygon class="st8" points="2123.9 2258.3 2096.7 2354 2083.6 2354 2111.2 2256.9"/> <polygon class="st8" points="2088 2254.4 2059.7 2354 2046.7 2354 2075.4 2253.1"/> <polygon class="st8" points="2052.1 2250.6 2022.8 2354 2009.7 2354 2039.5 2249.2"/> <polygon class="st8" points="2016.3 2246.7 1985.8 2354 1978.3 2354 1975.3 2345.3 2003.6 2245.4"/> <polygon class="st8" points="1980.4 2242.9 1962 2307.9 1954.7 2287.5 1967.8 2241.5"/> <path class="st9" d="m2037.1 2242.6-28.7-3.1-73.5-7.8-7.7-21.6-5.4-15.1h-51.3v15.1h38.7l56.9 161.1h202.7l30.6-105 1.9-6-164.2-17.6zm119.4 111.4h-178.2l-38.7-109.2 82.7 8.8 28.7 3.1 129.6 13.8-24.1 83.5z"/> <circle class="st3" cx="2013" cy="2414.3" r="19.9"/> <circle class="st3" cx="2123.8" cy="2414.5" r="19.9"/> <circle class="st7" cx="2017.2" cy="2414.3" r="19.9"/> <circle class="st7" cx="2128" cy="2414.5" r="19.9"/> <circle class="st3" cx="2013" cy="2414.3" r="19.9"/> <circle class="st3" cx="2123.8" cy="2414.5" r="19.9"/> <polygon class="st3" points="1927.3 2210.1 1870.6 2210.1 1870.6 2195 1922 2195"/> <polygon class="st7" points="2201.5 2260.1 2204.2 2272 2175 2373.3 1966.2 2371.1 2168.9 2371.1"/> <path class="st10" d="m2650.4 2358.5c0 37.9-30.7 68.6-68.6 68.6-22.6 0-42.7-11-55.2-27.9-8.4-11.4-13.4-25.4-13.4-40.7 0-37.9 30.7-68.6 68.6-68.6 19.7 0 37.5 8.3 50 21.6 11.5 12.3 18.6 28.9 18.6 47z"/> <path class="st11" d="m2645.1 2352.3c0 37.9-30.7 68.6-68.6 68.6-19.7 0-37.5-8.3-50-21.6-8.4-11.4-13.4-25.4-13.4-40.7 0-37.9 30.7-68.6 68.6-68.6 19.7 0 37.5 8.3 50 21.6 8.5 11.4 13.4 25.4 13.4 40.7z"/> <path class="st6" d="m2612.3 2345.2c0 4-0.7 7.9-2 11.7-1.3 3.7-3.3 7.2-5.8 10.3l-22.7 27.7-9.1-11.1-13.6-16.6c-2.5-3.1-4.5-6.6-5.8-10.3s-2-7.7-2-11.7c0-1.5 0.2-2.9 0.7-4.3s1.1-2.7 2-3.9c5.2-7 15.6-7.4 21.3-0.8l6.5 7.5 6.5-7.5c3.6-4.2 9.1-5.6 14-4.2 2.8 0.8 5.4 2.4 7.3 5 0.9 1.2 1.6 2.5 2 3.9 0.5 1.4 0.7 2.8 0.7 4.3z"/> <path class="st1" d="m2603.4 2341.9c-1.9 16.7-14.2 33.3-30.7 41.9l-13.6-16.6c-2.5-3.1-4.5-6.6-5.8-10.3s-2-7.7-2-11.7c0-1.5 0.2-2.9 0.7-4.3s1.1-2.7 2-3.9c5.2-7 15.6-7.4 21.3-0.8l6.5 7.5 6.5-7.5c3.6-4.2 9.1-5.6 14-4.2 0.7 3.2 1.5 6.5 1.1 9.9z"/> <path class="st10" d="m2540.3 1599c0 37.9-30.7 68.6-68.6 68.6-22.6 0-42.7-11-55.2-27.9-8.4-11.4-13.4-25.4-13.4-40.7 0-37.9 30.7-68.6 68.6-68.6 19.7 0 37.5 8.3 50 21.6 11.5 12.3 18.6 28.9 18.6 47z"/> <path class="st11" d="m2535 1592.8c0 37.9-30.7 68.6-68.6 68.6-19.7 0-37.5-8.3-50-21.6-8.4-11.4-13.4-25.4-13.4-40.7 0-37.9 30.7-68.6 68.6-68.6 19.7 0 37.5 8.3 50 21.6 8.5 11.4 13.4 25.4 13.4 40.7z"/> <polygon class="st6" points="2492.6 1606.9 2497.6 1635.7 2471.7 1622.1 2445.8 1635.7 2448.2 1621.8 2450.7 1606.9 2429.8 1586.5 2458.7 1582.3 2471.7 1556 2484.6 1582.3 2494.8 1583.8 2513.6 1586.5"/> <path class="st1" d="m2494.8 1583.8c-2.6 21.5-20.9 38.2-43.1 38.2-1.2 0-2.4-0.1-3.5-0.1l2.5-14.9-21-20.4 29-4.2 12.9-26.2 13 26.2 10.2 1.4z"/> <rect class="st12" x="2273.1" y="2588.8" width="277.6" height="56.4"/> <rect class="st4" x="2550.7" y="2588.8" width="110.3" height="56.4"/> <rect class="st4" x="2291.3" y="2645.2" width="275.2" height="246.1"/> <rect class="st13" x="2566.4" y="2645.2" width="76.5" height="246.1"/> <rect class="st7" x="2405.4" y="2645.2" width="47" height="246.1"/> <rect class="st6" x="2399.1" y="2588.8" width="47" height="56.4"/> <path class="st11" d="m2452.3 2645.2 63.2 5.9c24 2.2 42.6 21.9 43.5 46l7.3 194.1v-246.1h-114z"/> <path class="st10" d="m2566.4 2645.2h76.5v246.1l-6.1-210.1c-0.5-16.5-13.1-30.1-29.5-31.7l-40.9-4.3z"/> <path class="st12" d="m2446.1 2588.8h104.7v56.4l-3-27.9c-1.5-13.6-12.6-24.1-26.2-24.8l-75.5-3.7z"/> <path class="st11" d="m2661.1 2645.2v-56.4h-110.3l85.1 4c11.5 0.5 20.8 9.4 22 20.8l3.2 31.6z"/> <polygon class="st7" points="2273.1 2645.2 2273.1 2588.8 2261.1 2600 2261.1 2651.5 2273.1 2651.5 2273.1 2847.8 2291.3 2847.8 2291.3 2645.2"/> <rect class="st3" x="2273.1" y="2847.8" width="18.1" height="43.4"/> <polygon class="st14" points="2730.7 1983.9 2495.9 1749.1 2334.7 1747.8 2334.7 1747.9 2303.1 1779.5 2304.5 1922.6 2570.9 2188.9 2593.5 2166.3 2730.7 2029.1"/> <polygon class="st11" points="2303.1 1779.5 2334.8 1747.8 2336.1 1909 2304.5 1922.6"/> <polygon class="st4" points="2495.9 1749.1 2334.7 1747.8 2336.1 1909 2570.9 2143.7 2730.7 1983.9"/> <path class="st6" d="m2516.4 1850.6-15-15 7.5-7.5c2.4-2.4 2.4-6.4 0-8.9-2.4-2.4-6.4-2.4-8.9 0l-7.6 7.6c-12.2-9.7-30-8.9-41.2 2.4-5.9 5.9-9.1 13.6-9.1 21.9 0 7.1 2.4 13.8 6.7 19.3l-26.3 26.3-15-15c-2.4-2.4-6.4-2.4-8.9 0-2.4 2.4-2.4 6.4 0 8.9l15 15-7.5 7.5c-2.4 2.4-2.4 6.4 0 8.9 1.2 1.2 2.8 1.8 4.4 1.8s3.2-0.6 4.4-1.8l7.6-7.6c5.6 4.5 12.4 6.7 19.3 6.7 7.9 0 15.9-3 21.9-9.1 11.2-11.2 12-29 2.4-41.2l26.3-26.3 15 15c2.4 2.4 6.4 2.4 8.9 0 2.5-2.5 2.5-6.5 0.1-8.9zm-61.8 0.5c0-4.9 1.9-9.6 5.4-13.1 6.4-6.3 16.2-7.1 23.4-2.3l-25.7 25.7c-2-3-3.1-6.5-3.1-10.3zm0.4 52c-6.4 6.3-16.2 7.1-23.4 2.3l25.7-25.7c4.8 7.2 4.1 17-2.3 23.4z"/> <rect class="st6" transform="matrix(.7071 -.7071 .7071 .7071 -616.87 2438.5)" x="2625" y="1916.5" width="20.1" height="94.6"/> <rect class="st6" transform="matrix(.7071 -.7071 .7071 .7071 -654.37 2409.9)" x="2571.7" y="1931.7" width="20.1" height="126.2"/> <rect class="st6" transform="matrix(.7071 -.7071 .7071 .7071 -692.13 2381.9)" x="2519.1" y="1948.5" width="20.1" height="155.9"/> <polygon class="st13" points="2304.5 1922.6 2336.1 1909 2570.9 2143.7 2570.9 2188.9"/> <polygon class="st14" points="2570.9 2188.9 2570.9 2143.7 2730.7 1983.9 2730.7 2029.1"/> <polygon class="st3" points="2385.4 2028.8 2334.7 1978.2 2334.7 1952.8 2385.4 2003.5"/> <polygon class="st7" points="2334.7 1978.2 2279.2 1922.6 2304.5 1922.6 2334.7 1952.8"/> <polygon class="st7" points="2303.1 1779.5 2279.2 1802.9 2279.2 1922.6 2304.5 1922.6"/> <path class="st3" d="m1735.5 1699.3v214.8c-16.9-0.7-33.8-0.4-50.7 0.8v-173.9c0-23.1 18.7-41.8 41.8-41.8h8.9z"/> <path class="st7" d="m1735.5 1914.1c21.8 0.9 43.6 3.5 65.1 7.7l33.5 6.6h11.8v-180.6h-110.4v166.3z"/> <path class="st12" d="m1834 1665.3v246.4l-33.5-6.6c-50.5-9.9-102.2-10.7-152.8-2.5-11.3 1.8-22.6 4.1-33.8 6.8l-18.6 4.5c-61.2 14.9-124.8 16.4-186.6 4.3l-33.5-6.6v-246.4l33.5 6.6c61.8 12.1 125.4 10.6 186.6-4.3l18.6-4.5c20.7-5.1 41.8-8.6 62.9-10.5 35.6-3.3 71.5-2.2 106.9 3.3 5.6 0.9 11.2 1.8 16.8 2.9l33.5 6.6z"/> <path class="st7" d="m1784.9 1678.7c0 97.7-55.7 182.3-137.1 223.9-11.3 1.8-22.6 4.1-33.8 6.8l-18.6 4.5c-61.2 14.9-124.8 16.4-186.6 4.3l-33.5-6.6v-246.4l33.5 6.6c61.8 12.1 125.4 10.6 186.6-4.3l18.6-4.5c20.7-5.1 41.8-8.6 62.9-10.5 35.6-3.3 71.5-2.2 106.9 3.3 0.7 7.5 1.1 15.2 1.1 22.9z"/> <path class="st6" d="m1810.8 1741.7v89.2c-28.5 0-51.9 21.8-54.5 49.6-23.2-2.6-46.6-3.3-69.9-2.2-27.4 1.4-54.7 5.3-81.6 11.9-20.2 4.9-40.7 8.4-61.3 10.4-13.9 1.3-27.8 2-41.8 2-7.6 0-15.1-0.2-22.7-0.6-9.2-0.5-18.3-1.3-27.4-2.3 1.2-4.5 1.8-9.1 1.8-14 0-30.3-24.5-54.8-54.8-54.8v-89.2c27 0 49.4-19.5 53.9-45.2 8.8 1 17.6 1.7 26.5 2.2 21.5 1.1 43 0.6 64.4-1.4 20.6-2 41.1-5.4 61.3-10.4 33.8-8.3 68.4-12.4 103-12.4 16.4 0 32.8 0.9 49.1 2.8-0.5 3.1-0.8 6.3-0.8 9.6 0 18.5 9.2 34.9 23.3 44.8 8.9 6.3 19.7 10 31.5 10z"/> <path class="st1" d="m1779.2 1731.7c-12.7 59.3-46.4 110.9-93 146.5-27.4 1.4-54.7 5.3-81.6 11.9-20.2 4.9-40.7 8.4-61.3 10.4-13.9 1.3-27.8 2-41.8 2-7.6 0-15.1-0.2-22.7-0.6-9.2-0.5-18.3-1.3-27.4-2.3 1.2-4.5 1.8-9.1 1.8-14 0-30.3-24.5-54.8-54.8-54.8v-89.2c27 0 49.4-19.5 53.9-45.2 8.8 1 17.6 1.7 26.5 2.2 21.5 1.1 43 0.6 64.4-1.4 20.6-2 41.1-5.4 61.3-10.4 33.8-8.3 68.4-12.4 103-12.4 16.4 0 32.8 0.9 49.1 2.8-0.5 3.1-0.8 6.3-0.8 9.6 0.2 18.6 9.4 35 23.4 44.9z"/> <path class="st12" d="m1654.9 1786.3c0 27.7-22.5 50.2-50.2 50.2-0.8 0-1.6 0-2.4-0.1-1.5-0.1-2.9-0.2-4.3-0.4-24.5-3.3-43.5-24.3-43.5-49.8 0-25.4 18.9-46.4 43.4-49.8 2.2-0.3 4.5-0.5 6.8-0.5 5.2 0 10.3 0.8 15 2.3 20.4 6.5 35.2 25.6 35.2 48.1z"/> <path class="st7" d="m1641.3 1786.3c0 25.4-18.9 46.4-43.4 49.8-24.5-3.3-43.5-24.3-43.5-49.8 0-25.4 18.9-46.4 43.4-49.8 2.8 0.4 5.6 1 8.3 1.8 20.4 6.4 35.2 25.5 35.2 48z"/> <rect class="st3" x="1834" y="1699.3" width="11.8" height="48.5"/> <path class="st4" d="m1526.9 2854.3v26.5c0 2.9-1.2 5.5-3.1 7.4s-4.5 3.1-7.4 3.1h-20.1l9.6-47.4h10.6c3.3 0 6.3 1.6 8.2 4 1.4 1.7 2.2 3.9 2.2 6.4z"/> <polygon class="st7" points="1884.3 2502 1862.8 2502 1684.8 2502 1684.8 2891.3 1978.9 2891.3"/> <polygon class="st12" points="1878.7 2891.3 1496.3 2891.3 1505.9 2843.9 1575 2502 1846.1 2502"/> <polygon class="st11" points="1846.1 2502 1867.6 2502 1962.2 2891.3 1878.7 2891.3"/> <polygon class="st14" points="1878.7 2891.3 1909.5 2847.8 1962.2 2891.3"/> <polygon class="st13" points="1909.5 2847.8 1856.9 2502 1867.6 2502 1962.2 2891.3"/> <path class="st15" d="m1816.9 2450.7v51.4h-33.1v-51.7c0-35.8-29.1-64.9-64.9-64.9s-64.9 29-64.9 64.9v51.7h-33.1v-51.4c0-29.2 12.8-55.5 33.1-73.4 17.3-15.3 40-24.6 64.9-24.6s47.6 9.3 64.9 24.6c20.3 17.9 33.1 44.1 33.1 73.4z"/> <path class="st6" d="m1771 2667.3c0 9.3-1.6 18.5-4.7 27.2s-7.7 16.8-13.6 24l-52.9 64.7-38.1-46.6-14.8-18.1c-5.9-7.2-10.5-15.4-13.6-24-3.1-8.7-4.7-17.9-4.7-27.2 0-3.5 0.6-6.9 1.6-10.1 1.1-3.2 2.7-6.3 4.8-9.1 12.2-16.3 36.3-17.2 49.7-1.8l15.2 17.4 15.1-17.4c10.5-12 27.5-14.1 40.3-6.6 3.5 2.1 6.7 4.9 9.4 8.4 2.1 2.8 3.7 5.8 4.8 9.1 0.9 3.2 1.5 6.6 1.5 10.1z"/> <path class="st1" d="m1757.8 2659.9c0 43.4-35.2 78.7-78.7 78.7-6 0-11.9-0.7-17.5-2l-14.8-18.1c-5.9-7.2-10.5-15.4-13.6-24-3.1-8.7-4.7-17.9-4.7-27.2 0-3.5 0.6-6.9 1.6-10.1 1.1-3.2 2.7-6.3 4.8-9.1 12.2-16.3 36.3-17.2 49.7-1.8l15.2 17.4 15.1-17.4c10.5-12 27.5-14.1 40.3-6.6 1.7 6.4 2.6 13.2 2.6 20.2z"/> <path class="st8" d="m1783.8 2377.2v73.1c0-35.8-29.1-64.9-64.9-64.9s-64.9 29-64.9 64.9v-73.1c17.3-15.3 40-24.6 64.9-24.6 24.9 0.1 47.6 9.4 64.9 24.6z"/> <path class="st4" d="m1846.1 2502 32.6 389.3h-382.3l213-8.7c81.7-3.3 145.6-71.8 143.2-153.6l-6.5-227z"/> <polygon class="st3" points="1968.4 2847.8 1951.7 2847.8 1962.2 2891.3 1978.9 2891.3"/> <path class="st9" d="m1654 2476.2c-3.9 12.1-13.8 21.3-26.3 24.2l-6.8 1.6h33.1v-25.8z"/> <path class="st9" d="m1816.9 2476.2c-3.9 12.1-13.8 21.3-26.3 24.2l-6.8 1.6h33.1v-25.8z"/> <path class="st15" d="m1456.6 2701.6h-167.1c-2.9 0-5.5 1.2-7.4 3.1s-3.1 4.5-3.1 7.4v26.5c0 2.2 0.7 4.2 1.8 5.9 1.9 2.7 5 4.5 8.6 4.5h167.1c2.9 0 5.5-1.2 7.4-3.1s3.1-4.5 3.1-7.4v-26.5c0-2.4-0.8-4.7-2.2-6.4-1.9-2.5-4.9-4-8.2-4z"/> <rect class="st16" x="1316.7" y="2701.6" width="37.6" height="47.4"/> <rect class="st15" x="1354.2" y="2701.6" width="37.6" height="47.4"/> <path class="st9" d="m1452.4 2738.6h-173.4c0 5.8 4.7 10.4 10.4 10.4h167.1c5.8 0 10.4-4.7 10.4-10.4v-26.6l-2.2 15.8c-0.7 6.1-6 10.8-12.3 10.8z"/> <rect class="st16" x="1391.8" y="2701.6" width="37.6" height="47.4"/> <rect class="st15" x="1316.7" y="2738.6" width="37.6" height="10.4"/> <rect class="st15" x="1391.8" y="2738.6" width="37.6" height="10.4"/> <path class="st15" d="m1500.8 2749h-167.1c-2.9 0-5.5 1.2-7.4 3.1s-3.1 4.5-3.1 7.4v26.5c0 2.2 0.7 4.2 1.8 5.9 1.9 2.7 5 4.5 8.6 4.5h167.1c2.9 0 5.5-1.2 7.4-3.1s3.1-4.5 3.1-7.4v-26.5c0-2.4-0.8-4.7-2.2-6.4-1.9-2.4-4.8-4-8.2-4z"/> <rect class="st16" x="1360.9" y="2749" width="37.6" height="47.4"/> <rect class="st15" x="1398.5" y="2749" width="37.6" height="47.4"/> <path class="st9" d="m1496.6 2786h-173.4c0 5.8 4.7 10.4 10.4 10.4h167.1c5.8 0 10.4-4.7 10.4-10.4v-26.5l-2.2 15.8c-0.7 6.1-6 10.7-12.3 10.7z"/> <rect class="st16" x="1436.1" y="2749" width="37.6" height="47.4"/> <rect class="st15" x="1360.9" y="2786" width="37.6" height="10.4"/> <rect class="st15" x="1436.1" y="2786" width="37.6" height="10.4"/> <path class="st15" d="m1482 2796.4h-167.1c-2.9 0-5.5 1.2-7.4 3.1s-3.1 4.5-3.1 7.4v26.5c0 2.2 0.7 4.2 1.8 5.9 1.9 2.7 5 4.5 8.6 4.5h167.2c2.9 0 5.5-1.2 7.4-3.1s3.1-4.5 3.1-7.4v-26.5c0-2.4-0.8-4.7-2.2-6.4-2-2.4-4.9-4-8.3-4z"/> <rect class="st16" x="1342.1" y="2796.4" width="37.6" height="47.4"/> <rect class="st15" x="1379.7" y="2796.4" width="37.6" height="47.4"/> <path class="st9" d="m1477.9 2833.4h-173.4c0 5.8 4.7 10.4 10.4 10.4h167.1c5.8 0 10.4-4.7 10.4-10.4v-26.5l-2.2 15.8c-0.8 6.1-6.1 10.7-12.3 10.7z"/> <rect class="st16" x="1417.3" y="2796.4" width="37.6" height="47.4"/> <rect class="st15" x="1342.1" y="2833.4" width="37.6" height="10.4"/> <rect class="st15" x="1417.3" y="2833.4" width="37.6" height="10.4"/> <path class="st15" d="m1507.1 2843.8h-167.1c-2.9 0-5.5 1.2-7.4 3.1s-3.1 4.5-3.1 7.4v26.5c0 2.2 0.7 4.2 1.8 5.9 1.9 2.7 5 4.5 8.6 4.5h167.1c2.9 0 5.5-1.2 7.4-3.1s3.1-4.5 3.1-7.4v-26.5c0-2.4-0.8-4.7-2.2-6.4-1.9-2.4-4.9-4-8.2-4z"/> <rect class="st15" x="1404.7" y="2843.8" width="37.6" height="47.4"/> <path class="st9" d="m1515.3 2870c-0.9 6.2-6.2 10.8-12.4 10.8h-173.4c0 5.8 4.7 10.4 10.4 10.4h167.1c5.8 0 10.4-4.7 10.4-10.4v-26.5l-2.1 15.7z"/> <rect class="st16" x="1367.1" y="2843.8" width="37.6" height="47.4"/> <rect class="st16" x="1442.3" y="2843.8" width="37.6" height="47.4"/> <rect class="st15" x="1367.1" y="2880.8" width="37.6" height="10.4"/> <rect class="st15" x="1442.3" y="2880.8" width="37.6" height="10.4"/> <path class="st8" d="m2404.9 1352.4-147.3-147.3-22.8 0.3-74.4 74.4 7.8 7.8c2.7 2.7 4.5 5.9 5.5 9.3l-0.3 1.5c0 0.1 0 0.2-0.1 0.3-2.5 12-17.4 16.3-26.1 7.6l-6.7-6.7-270.1 270.1 158.5 158.5 21.4 1.7 248.7-248.7-19.4-19.4c-2.7-2.7-4.5-5.9-5.6-9.3l0.3-1.5c0-0.1 0-0.2 0.1-0.3 2.5-12 17.4-16.3 26.1-7.6l18.3 18.3 97.5-97.5-11.4-11.5z"/> <path class="st15" d="m2160.4 1279.8 74.4-74.4 158.5 158.5-74.4 74.4-7.8-7.8c-8.7-8.7-22.7-8.7-31.4 0-4.3 4.3-6.5 10-6.5 15.7s2.2 11.3 6.5 15.7l7.8 7.8-258.5 258.5-158.5-158.5 258.5-258.5 7.8 7.8c4.3 4.3 10 6.5 15.7 6.5s11.3-2.2 15.7-6.5c8.7-8.7 8.7-22.7 0-31.3l-7.8-7.9z"/> <path class="st17" d="m2192.6 1349.6c-1.6 0-3.2-0.6-4.4-1.8l-10.7-10.7c-2.4-2.4-2.4-6.4 0-8.9 2.4-2.4 6.4-2.4 8.9 0l10.7 10.7c2.4 2.4 2.4 6.4 0 8.9-1.3 1.2-2.9 1.8-4.5 1.8z"/> <path class="st17" d="m2217.1 1374.1c-1.6 0-3.2-0.6-4.4-1.8l-10.7-10.7c-2.4-2.4-2.4-6.4 0-8.9 2.4-2.4 6.4-2.4 8.9 0l10.7 10.7c2.4 2.4 2.4 6.4 0 8.9-1.3 1.1-2.9 1.8-4.5 1.8z"/> <path class="st17" d="m2241.6 1398.5c-1.6 0-3.2-0.6-4.4-1.8l-10.7-10.7c-2.4-2.4-2.4-6.4 0-8.9 2.4-2.4 6.4-2.4 8.9 0l10.7 10.7c2.4 2.4 2.4 6.4 0 8.9-1.3 1.2-2.9 1.8-4.5 1.8z"/> <path class="st17" d="m2266 1423c-1.6 0-3.2-0.6-4.4-1.8l-10.7-10.7c-2.4-2.4-2.4-6.4 0-8.9 2.4-2.4 6.4-2.4 8.9 0l10.7 10.7c2.4 2.4 2.4 6.4 0 8.9-1.3 1.2-2.9 1.8-4.5 1.8z"/> <path class="st18" d="m2134.5 1480.2c-3.5 0-6.3-2.8-6.3-6.3v-105.3c0-3.5 2.8-6.3 6.3-6.3s6.3 2.8 6.3 6.3v105.3c-0.1 3.5-2.9 6.3-6.3 6.3z"/> <circle class="st18" cx="2097.9" cy="1422.6" r="14.9"/> <circle class="st18" cx="2171" cy="1419.9" r="14.9"/> <rect class="st18" transform="matrix(.7071 -.7071 .7071 .7071 -510.85 1849.4)" x="1909.6" y="1529" width="134.9" height="24.8"/> <rect class="st18" transform="matrix(.7071 -.7071 .7071 .7071 -512.94 1895.6)" x="1943.7" y="1554.6" width="176" height="24.8"/> <rect class="st18" transform="matrix(.7071 -.7071 .7071 .7071 -485.42 1954.1)" x="1965.6" y="1550.6" width="300.9" height="24.8"/> <polygon class="st3" points="2070.3 1729.9 2050.5 1729.9 2081 1699.3 2100.8 1699.3"/> <path class="st7" d="m1767.2 2057.2v136.3c0 3.6-0.7 7-2.1 10.2-4 9.4-13.2 15.9-24 15.9h-56.3v-188.5h56.3c3.2 0 6.2 0.6 9.1 1.6 5.2 1.9 9.7 5.5 12.7 10.1 2.7 4.2 4.3 9.1 4.3 14.4z"/> <path class="st19" d="m1748.2 2042.8c-3-4.6-7.5-8.2-12.7-10.1-2.8-1-5.9-1.6-9.1-1.6h-225.7c-7.8 0-14.8 3.4-19.6 8.9-4.1 4.6-6.5 10.6-6.5 17.2v136.3c0 4.7 1.3 9.2 3.5 13 0.4 0.7 0.8 1.3 1.3 2 4.7 6.7 12.5 11.1 21.4 11.1h129.5l101.6 63.8-35.7-63.8h30.2c10.8 0 20.1-6.6 24-15.9 1.3-3.1 2.1-6.5 2.1-10.2v-136.3c0-5.3-1.5-10.2-4.3-14.4z"/> <path class="st9" d="m1739 2045.7v136.3c0 3.6-0.7 7-2.1 10.2-4 9.4-13.2 15.9-24 15.9h-225.7c-3.2 0-6.3-0.6-9.1-1.6-2.2-3.8-3.5-8.3-3.5-13v-136.3c0-6.6 2.5-12.6 6.5-17.2 4.8-5.4 11.8-8.9 19.6-8.9h225.7c3.2 0 6.2 0.6 9.1 1.6 2.2 3.9 3.5 8.3 3.5 13z"/> <circle class="st18" cx="1698.2" cy="2125.4" r="12.7"/> <circle class="st18" cx="1641.8" cy="2125.4" r="12.7"/> <circle class="st18" cx="1585.4" cy="2125.4" r="12.7"/> <circle class="st18" cx="1529" cy="2125.4" r="12.7"/> <polygon class="st3" points="1731.9 2283.5 1696.2 2219.7 1710.9 2219.7 1731.8 2257.1"/> <path class="st17" d="m1630.3 2219.7h65.9l14.6 26.2-7.8-7.3c-8.7-8.2-19.8-13.3-31.6-14.5l-41.1-4.4z"/> <path d="m3271.8 2918h-2542.7c-7.4 0-13.4-6-13.4-13.4s6-13.4 13.4-13.4h2542.7c7.4 0 13.4 6 13.4 13.4 0 7.5-6 13.4-13.4 13.4z"/> </svg>